# Blender 3.5.1
# www.blender.org
mtllib Geladeira.mtl
o Cube
v 1.602192 -1.602192 -1.602192
v 1.602192 -1.602192 1.602192
v -1.602193 -1.602192 1.602192
v -1.602192 -1.602192 -1.602193
v 1.602193 4.557168 -1.602192
v 1.602191 4.557168 1.602193
v -1.602193 4.557168 1.602192
v -1.602192 4.557168 -1.602192
v 1.716227 -1.344266 -1.468007
v 1.716227 -1.344266 1.468007
v 1.716228 4.299242 -1.468006
v 1.716226 4.299242 1.468008
v 1.878587 -1.549048 -1.574544
v 1.878587 -1.549048 1.574544
v 1.878588 4.504024 -1.574543
v 1.878586 4.504024 1.574545
v 2.108373 -1.549048 -1.574544
v 2.108373 -1.549048 1.574544
v 2.108374 4.504024 -1.574543
v 2.108372 4.504024 1.574545
v 1.602193 -0.560101 -1.602192
v 1.602193 0.466460 -1.602192
v 1.602193 1.493020 -1.602192
v 1.602193 2.519580 -1.602192
v 1.602193 3.546140 -1.602192
v 1.602192 -0.560101 1.602193
v 1.602192 0.466460 1.602193
v 1.602192 1.493020 1.602193
v 1.602192 2.519580 1.602193
v 1.602191 3.546140 1.602193
v -1.602193 -0.560101 1.602192
v -1.602193 0.466460 1.602192
v -1.602193 1.493020 1.602192
v -1.602193 2.519580 1.602192
v -1.602193 3.546140 1.602192
v -1.602192 -0.560101 -1.602193
v -1.602192 0.466460 -1.602193
v -1.602192 1.493020 -1.602193
v -1.602192 2.519580 -1.602193
v -1.602192 3.546140 -1.602192
v 1.716227 -0.389450 -1.468007
v 1.716227 0.551134 -1.468007
v 1.716227 1.491719 -1.468007
v 1.716227 2.432304 -1.468007
v 1.716227 3.372889 -1.468006
v 1.716227 -0.389450 1.468007
v 1.716226 0.551134 1.468007
v 1.716226 1.491719 1.468008
v 1.716226 2.432304 1.468008
v 1.716226 3.372889 1.468008
v 1.878587 -0.524939 -1.574544
v 1.878587 0.483907 -1.574544
v 1.878588 1.492752 -1.574544
v 1.892534 2.501597 -1.456403
v 1.878588 3.510442 -1.574543
v 1.878587 -0.524939 1.574544
v 1.878587 0.483907 1.574544
v 1.878586 1.492752 1.574545
v 1.892532 2.501597 1.425112
v 1.878586 3.510442 1.574545
v 2.108373 -0.524939 -1.574544
v 2.108373 0.483907 -1.574544
v 2.108373 1.492752 -1.574543
v 1.967306 2.501597 -1.456403
v 2.108374 3.510442 -1.574543
v 2.108373 -0.524939 1.574544
v 2.108372 0.483907 1.574544
v 2.108372 1.492752 1.574545
v 1.967305 2.501597 1.425112
v 2.108372 3.510442 1.574545
v 1.602192 -1.602192 -1.238306
v 1.602192 -1.602192 -0.437210
v 1.602192 -1.602192 0.363886
v -1.602192 -1.602192 0.363886
v -1.602192 -1.602192 -0.437210
v -1.602192 -1.602192 -1.238307
v 1.602193 4.557168 -1.238305
v 1.602193 4.557168 -0.437209
v 1.602192 4.557168 0.363887
v -1.602193 4.557168 0.363886
v -1.602192 4.557168 -0.437210
v -1.602192 4.557168 -1.238306
v 1.716227 -1.344266 -1.134597
v 1.716227 -1.344266 -0.400593
v 1.716227 -1.344266 0.333411
v 1.716227 4.299242 -1.134596
v 1.716227 4.299242 -0.400592
v 1.716227 4.299242 0.333411
v 1.878587 -1.549048 -1.216937
v 1.878587 -1.549048 -0.429665
v 1.878587 -1.549048 0.357607
v 1.878588 4.504024 -1.216936
v 1.878587 4.504024 -0.429664
v 1.878587 4.504024 0.357608
v 2.108373 -1.549048 -1.216937
v 2.108373 -1.549048 -0.429665
v 2.108373 -1.549048 0.357607
v 2.108373 4.504024 -1.216936
v 2.108373 4.504024 -0.429664
v 2.108373 4.504024 0.357608
v 2.108373 -0.524939 -1.216937
v 2.108373 -0.524939 -0.429665
v 2.108373 -0.524939 0.357607
v 2.108373 0.483907 -1.216937
v 2.108373 0.483907 -0.429665
v 2.108373 0.483907 0.357607
v 2.108373 1.492752 -1.216936
v 2.108373 1.492752 -0.429665
v 2.108373 1.492752 0.357608
v 1.967306 2.501597 -1.129182
v 1.967306 2.501597 -0.408803
v 1.967306 2.501597 0.311576
v 2.108373 3.510442 -1.216936
v 2.108373 3.510442 -0.429664
v 2.108373 3.510442 0.357608
v -1.602192 -0.560101 0.363886
v -1.602192 -0.560101 -0.437210
v -1.602192 -0.560101 -1.238306
v -1.602192 0.466460 0.363886
v -1.602192 0.466460 -0.437210
v -1.602192 0.466460 -1.238306
v -1.602192 1.493020 0.363886
v -1.602192 1.493020 -0.437210
v -1.602192 1.493020 -1.238306
v -1.602192 2.519580 0.363886
v -1.602192 2.519580 -0.437210
v -1.602192 2.519580 -1.238306
v -1.602192 3.546140 0.363886
v -1.602192 3.546140 -0.437210
v -1.602192 3.546140 -1.238306
v 1.602193 2.415508 -1.602192
v 1.602192 2.415508 1.602193
v -1.602193 2.415508 1.602192
v -1.602192 2.415508 -1.602193
v 1.716227 2.336948 -1.468007
v 1.716226 2.336948 1.468008
v 1.878588 2.399321 -1.574543
v 1.878586 2.399321 1.574545
v 2.108373 2.399321 -1.574543
v 2.108372 2.399321 1.574545
v -1.602192 2.415508 0.363886
v -1.602192 2.415508 -0.437210
v -1.602192 2.415508 -1.238306
v 2.108373 2.399321 -1.216936
v 2.108373 2.399321 -0.429664
v 2.108373 2.399321 0.357608
v 1.602193 2.615541 -1.602192
v 1.602192 2.615541 1.602193
v -1.602193 2.615541 1.602192
v -1.602192 2.615541 -1.602193
v 1.716227 2.520228 -1.468007
v 1.716226 2.520228 1.468008
v 1.878588 2.595902 -1.574543
v 1.878586 2.595902 1.574545
v 2.108373 2.595902 -1.574543
v 2.108372 2.595902 1.574545
v -1.602192 2.615541 0.363886
v -1.602192 2.615541 -0.437210
v -1.602192 2.615541 -1.238306
v 2.108373 2.595902 -1.216936
v 2.108373 2.595902 -0.429664
v 2.108373 2.595902 0.357608
v 1.602192 -1.602192 -1.086374
v -1.602192 -1.602192 -1.086375
v 1.602193 4.557168 -1.086373
v -1.602192 4.557168 -1.086374
v 1.716227 -1.344266 -0.995389
v 1.716227 4.299242 -0.995388
v 1.878587 -1.549048 -1.067627
v 1.878588 4.504024 -1.067626
v 2.108373 -1.549048 -1.067627
v 2.108373 4.504024 -1.067626
v 2.108373 -0.524939 -1.067627
v 2.108373 0.483907 -1.067626
v 2.108373 1.492752 -1.067626
v 1.967306 2.501597 -0.992558
v 2.108373 3.510442 -1.067626
v -1.602192 -0.560101 -1.086374
v -1.602192 0.466460 -1.086374
v -1.602192 1.493020 -1.086374
v -1.602192 2.519580 -1.086374
v -1.602192 3.546140 -1.086374
v 2.108373 2.399321 -1.067626
v -1.602192 2.415508 -1.086374
v 2.108373 2.595902 -1.067626
v -1.602192 2.615541 -1.086374
v 2.335467 2.399321 -1.216936
v 2.335466 1.492752 -1.216936
v 2.335466 0.483907 -1.216937
v 2.335466 -0.524939 -1.216937
v 2.335467 3.510442 -1.216936
v 2.335467 2.595902 -1.216936
v 2.335466 -0.524939 -1.067627
v 2.335466 0.483907 -1.067626
v 2.335466 1.492752 -1.067626
v 2.335467 3.510442 -1.067626
v 2.335467 2.399321 -1.067626
v 2.335467 2.595902 -1.067626
vn -0.0000 -1.0000 -0.0000
vn -0.0000 1.0000 -0.0000
vn 0.9146 0.4044 -0.0000
vn -0.0000 -0.0000 1.0000
vn -1.0000 -0.0000 -0.0000
vn -0.0000 -0.0000 -1.0000
vn -0.7836 0.6213 -0.0000
vn 0.7620 -0.0000 0.6476
vn 0.7620 -0.0000 -0.6476
vn 0.9146 -0.4044 -0.0000
vn -0.5486 -0.0000 -0.8361
vn -0.5486 -0.0000 0.8361
vn -0.7836 -0.6213 -0.0000
vn 1.0000 -0.0000 -0.0000
vn -0.0000 -0.8457 0.5337
vn 0.5870 0.8096 -0.0000
vn 0.1219 -0.6238 0.7720
vn -0.4066 0.4897 -0.7713
vn -0.0000 0.7560 -0.6545
vn -0.3622 0.5783 0.7310
vn -0.0000 0.8252 0.5648
vn 0.5558 -0.8313 -0.0000
vn -0.0000 -0.7815 -0.6239
vn -0.0023 -0.5441 -0.8390
vt 0.212954 0.000000
vt 0.717540 0.703400
vt 0.438315 0.703400
vt 0.438074 0.462688
vt 0.000000 0.000000
vt 0.438315 0.462688
vt 0.717540 0.462688
vt 0.393928 0.000000
vt 0.997006 0.462688
vt 0.717540 0.462688
vt 0.212954 0.462688
vt 0.997006 0.462688
vt 0.717540 0.462689
vt 0.000000 0.462688
vt 0.438074 0.000000
vt 0.717540 0.703400
vt 0.717540 0.000000
vt 0.997006 0.000000
vt 0.393928 0.462688
vt 0.997006 0.703400
vt 0.265352 0.743905
vt 0.197596 0.019375
vt 0.428129 0.443313
vt 0.009291 0.743905
vt 0.002477 0.019375
vt 0.815726 0.931955
vt 0.197596 0.443313
vt 0.002477 0.443313
vt 0.815726 0.711403
vt 0.428129 0.019375
vt 0.418275 0.462688
vt 0.274643 0.759288
vt 0.660572 0.703400
vt 0.413969 0.458696
vt 0.418275 0.699043
vt 0.000000 0.759288
vt 0.833586 0.894836
vt 0.387292 0.462688
vt 0.833586 0.939958
vt 0.833586 0.703400
vt 0.387292 0.699246
vt 0.413969 0.003992
vt 0.438315 0.462688
vt 0.647594 0.703400
vt 0.393929 0.458696
vt 0.438315 0.703400
vt 0.438315 0.699043
vt 0.367252 0.462688
vt 0.833586 0.883658
vt 0.833586 0.703400
vt 0.367252 0.699246
vt 0.393928 0.003992
vt 0.212954 0.078281
vt 0.212954 0.155396
vt 0.212954 0.232511
vt 0.212954 0.309626
vt 0.212954 0.386740
vt 0.438074 0.384407
vt 0.438074 0.307292
vt 0.438074 0.230178
vt 0.438074 0.153063
vt 0.438074 0.075948
vt 0.717540 0.384407
vt 0.717540 0.307292
vt 0.717540 0.230177
vt 0.717540 0.153063
vt 0.717540 0.075948
vt 0.393928 0.078281
vt 0.997006 0.384407
vt 0.393928 0.155396
vt 0.997006 0.307292
vt 0.393928 0.232511
vt 0.997006 0.230177
vt 0.393928 0.309626
vt 0.997006 0.153063
vt 0.997006 0.075948
vt 0.393928 0.386740
vt 0.265352 0.672180
vt 0.197596 0.091101
vt 0.265352 0.601523
vt 0.197596 0.161757
vt 0.197596 0.232413
vt 0.265352 0.530867
vt 0.327406 0.470030
vt 0.197596 0.303070
vt 0.734935 0.931955
vt 0.197596 0.373726
vt 0.428129 0.371588
vt 0.428129 0.300932
vt 0.428129 0.230275
vt 0.428129 0.159619
vt 0.428129 0.088963
vt 0.274643 0.682357
vt 0.660572 0.780331
vt 0.274643 0.606573
vt 0.660572 0.856115
vt 0.660572 0.931899
vt 0.274643 0.530789
vt 0.312105 0.471606
vt 0.366035 0.690470
vt 0.186868 0.308275
vt 0.746932 0.939958
vt 0.920240 0.894836
vt 0.413969 0.381766
vt 0.413969 0.305982
vt 0.413969 0.230198
vt 0.366035 0.474198
vt 0.412753 0.154414
vt 0.325497 0.687757
vt 0.413969 0.078630
vt 0.647594 0.780331
vt 0.647594 0.856115
vt 0.647594 0.931899
vt 0.305593 0.471905
vt 0.359514 0.690470
vt 0.920240 0.883658
vt 0.393928 0.381766
vt 0.438315 0.780331
vt 0.393928 0.305982
vt 0.438315 0.856115
vt 0.393928 0.230198
vt 0.438315 0.931899
vt 0.318985 0.688056
vt 0.359514 0.474198
vt 0.920240 0.703400
vt 0.393928 0.078630
vt 0.188771 0.000000
vt 0.685832 0.703400
vt 0.616025 0.703400
vt 0.135533 0.000000
vt 0.082294 0.000000
vt 0.546219 0.703400
vt 0.825537 0.462688
vt 0.546219 0.462688
vt 0.616025 0.462688
vt 0.895404 0.462688
vt 0.965270 0.462688
vt 0.685832 0.462688
vt 0.965270 0.462688
vt 0.188771 0.462688
vt 0.135533 0.462688
vt 0.895404 0.462688
vt 0.082294 0.462688
vt 0.825537 0.462688
vt 0.825537 0.000000
vt 0.825537 0.703400
vt 0.895404 0.703400
vt 0.895404 0.000000
vt 0.965270 0.000000
vt 0.965270 0.703400
vt 0.236274 0.743905
vt 0.175439 0.019375
vt 0.126659 0.019375
vt 0.172259 0.743905
vt 0.108244 0.743905
vt 0.077879 0.019375
vt 0.175439 0.443313
vt 0.815726 0.906910
vt 0.815726 0.851772
vt 0.126659 0.443313
vt 0.815726 0.796634
vt 0.077879 0.443313
vt 0.418275 0.489529
vt 0.243455 0.759288
vt 0.174794 0.759288
vt 0.418275 0.548617
vt 0.418275 0.607706
vt 0.106133 0.759288
vt 0.833586 0.913095
vt 0.387292 0.489552
vt 0.387292 0.548691
vt 0.833586 0.853956
vt 0.387292 0.607831
vt 0.833586 0.794816
vt 0.438315 0.489529
vt 0.623829 0.703400
vt 0.571509 0.703400
vt 0.438315 0.548617
vt 0.519189 0.703400
vt 0.438315 0.607706
vt 0.833586 0.863188
vt 0.367252 0.489552
vt 0.367252 0.548691
vt 0.833586 0.818124
vt 0.367252 0.607831
vt 0.833586 0.773059
vt 0.353438 0.699042
vt 0.623829 0.780331
vt 0.571509 0.780331
vt 0.519189 0.780331
vt 0.623829 0.856115
vt 0.571509 0.856115
vt 0.519189 0.856115
vt 0.623829 0.931899
vt 0.571509 0.931899
vt 0.519189 0.931899
vt 0.359514 0.665910
vt 0.307114 0.496451
vt 0.310462 0.550489
vt 0.359514 0.611842
vt 0.313810 0.604527
vt 0.359514 0.557774
vt 0.327406 0.699042
vt 0.920240 0.863188
vt 0.920240 0.818124
vt 0.920240 0.773059
vt 0.825537 0.384407
vt 0.895404 0.384407
vt 0.965270 0.384407
vt 0.825537 0.307292
vt 0.895404 0.307292
vt 0.965270 0.307292
vt 0.825537 0.230177
vt 0.895404 0.230177
vt 0.965270 0.230177
vt 0.825537 0.153063
vt 0.895404 0.153063
vt 0.965270 0.153063
vt 0.825537 0.075948
vt 0.895404 0.075948
vt 0.965270 0.075948
vt 0.212954 0.301808
vt 0.438074 0.160881
vt 0.717540 0.160881
vt 0.997006 0.160881
vt 0.393928 0.301808
vt 0.327406 0.470030
vt 0.197596 0.295906
vt 0.265352 0.467374
vt 0.428129 0.166782
vt 0.312771 0.462688
vt 0.660572 1.000000
vt 0.274643 0.462688
vt 0.413969 0.162097
vt 0.327406 0.698910
vt 0.292759 0.463608
vt 0.647594 1.000000
vt 0.393928 0.162097
vt 0.438315 1.000000
vt 0.307394 0.699830
vt 0.825537 0.160881
vt 0.895404 0.160881
vt 0.965270 0.160881
vt 0.623829 1.000000
vt 0.294421 0.490433
vt 0.298079 0.549489
vt 0.571509 1.000000
vt 0.301738 0.608544
vt 0.519189 1.000000
vt 0.212954 0.316834
vt 0.438074 0.145854
vt 0.717540 0.145854
vt 0.997006 0.145854
vt 0.393928 0.316834
vt 0.660572 0.931955
vt 0.197596 0.309674
vt 0.428129 0.153014
vt 0.667172 0.939958
vt 1.000000 0.894836
vt 0.367252 0.699042
vt 0.195506 0.315359
vt 0.367252 0.462688
vt 0.413969 0.147330
vt 1.000000 0.883658
vt 0.347211 0.699042
vt 1.000000 0.703400
vt 0.347211 0.462688
vt 0.393928 0.147330
vt 0.825537 0.145854
vt 0.895404 0.145854
vt 0.965270 0.145854
vt 1.000000 0.863188
vt 0.347211 0.672202
vt 1.000000 0.818124
vt 0.347211 0.613114
vt 1.000000 0.773059
vt 0.347211 0.554025
vt 0.672592 0.703400
vt 0.178674 0.000000
vt 0.672592 0.462688
vt 0.952020 0.462688
vt 0.952019 0.462688
vt 0.178674 0.462688
vt 0.952020 0.703400
vt 0.952019 0.000000
vt 0.166187 0.019375
vt 0.224133 0.743905
vt 0.166187 0.443313
vt 0.815726 0.896452
vt 0.230433 0.759288
vt 0.418275 0.500735
vt 0.833586 0.901879
vt 0.387292 0.500768
vt 0.438315 0.500735
vt 0.613906 0.703400
vt 0.833586 0.854642
vt 0.367252 0.500768
vt 0.613906 0.780331
vt 0.340428 0.699042
vt 0.398469 0.462688
vt 0.613906 0.856115
vt 0.398469 0.538472
vt 0.613906 0.931899
vt 0.398469 0.614256
vt 0.359514 0.655656
vt 0.307749 0.506700
vt 0.920240 0.854642
vt 0.340428 0.699042
vt 0.418275 0.682357
vt 0.952019 0.384407
vt 0.952019 0.307292
vt 0.952019 0.230177
vt 0.952019 0.153063
vt 0.952019 0.075948
vt 0.613906 1.000000
vt 0.295115 0.501633
vt 0.398469 0.682357
vt 0.952019 0.160881
vt 1.000000 0.854642
vt 0.418275 0.751057
vt 0.347211 0.660996
vt 0.952019 0.145854
vt 0.274643 0.491342
vt 0.611003 1.000000
vt 0.611003 0.931899
vt 0.611003 0.856115
vt 0.353438 0.716102
vt 0.611003 0.780331
vt 0.327406 0.716102
vt 0.920240 0.852141
vt 1.000000 0.852141
vt 0.327406 0.672202
vt 0.601080 0.780331
vt 0.340428 0.716102
vt 0.418275 0.462688
vt 0.601080 0.856115
vt 0.418275 0.538472
vt 0.601080 0.931899
vt 0.418275 0.614256
vt 0.920240 0.843595
vt 0.340428 0.716102
vt 0.398469 0.682357
vt 0.275337 0.502542
vt 0.601080 1.000000
vt 0.418275 0.682357
vt 1.000000 0.843595
vt 0.398469 0.751057
vt 0.327406 0.660996
s 0
usemtl Material
f 73/132/1 2/3/1 3/6/1 74/134/1
f 79/144/2 80/146/2 7/16/2 6/13/2
f 79/143/3 6/14/3 12/28/3 88/162/3
f 30/62/4 6/15/4 7/17/4 35/67/4
f 130/221/5 82/149/5 8/18/5 40/76/5
f 21/53/6 1/1/6 4/8/6 36/68/6
f 88/161/7 12/29/7 16/40/7 94/174/7
f 26/58/8 2/4/8 10/23/8 46/88/8
f 25/57/9 5/11/9 11/27/9 45/87/9
f 71/127/10 1/1/10 9/22/10 83/152/10
f 55/103/6 15/37/6 19/49/6 65/116/6
f 45/86/11 11/26/11 15/39/11 55/102/11
f 46/88/12 10/23/12 14/34/12 56/104/12
f 83/151/13 9/21/13 13/32/13 89/164/13
f 115/206/14 100/186/14 20/50/14 70/125/14
f 56/104/4 14/34/4 18/45/4 66/117/4
f 89/163/1 13/31/1 17/43/1 95/175/1
f 94/173/2 16/41/2 20/51/2 100/185/2
f 16/42/4 60/110/4 70/126/4 20/52/4
f 154/262/15 59/107/15 69/124/15 156/267/15
f 138/234/4 58/106/4 68/121/4 140/238/4
f 58/106/4 57/105/4 67/119/4 68/121/4
f 57/105/4 56/104/4 66/117/4 67/119/4
f 97/179/14 103/190/14 66/118/14 18/46/14
f 103/190/14 106/193/14 67/120/14 66/118/14
f 106/193/14 109/196/14 68/122/14 67/120/14
f 146/248/16 112/201/16 69/123/16 140/240/16
f 162/276/14 115/206/14 70/125/14 156/266/14
f 12/30/12 50/92/12 60/110/12 16/42/12
f 152/257/17 49/91/17 59/108/17 154/263/17
f 136/230/12 48/90/12 58/106/12 138/234/12
f 48/90/12 47/89/12 57/105/12 58/106/12
f 47/89/12 46/88/12 56/104/12 57/105/12
f 9/21/11 41/78/11 51/93/11 13/32/11
f 41/78/11 42/80/11 52/95/11 51/93/11
f 42/80/11 43/83/11 53/98/11 52/95/11
f 135/227/18 44/84/18 54/99/18 137/231/18
f 151/255/11 45/86/11 55/102/11 153/258/11
f 13/33/6 51/94/6 61/111/6 17/44/6
f 51/94/6 52/96/6 62/112/6 61/111/6
f 52/96/6 53/97/6 63/113/6 62/112/6
f 137/231/19 54/99/19 64/114/19 139/236/19
f 153/259/6 55/103/6 65/116/6 155/264/6
f 1/1/9 21/53/9 41/79/9 9/22/9
f 21/53/9 22/54/9 42/81/9 41/79/9
f 22/54/9 23/55/9 43/82/9 42/81/9
f 131/222/9 24/56/9 44/85/9 135/228/9
f 147/250/9 25/57/9 45/87/9 151/256/9
f 6/15/8 30/62/8 50/92/8 12/30/8
f 148/251/8 29/61/8 49/91/8 152/257/8
f 132/223/8 28/60/8 48/90/8 136/230/8
f 28/60/8 27/59/8 47/89/8 48/90/8
f 27/59/8 26/58/8 46/88/8 47/89/8
f 5/11/6 25/57/6 40/77/6 8/19/6
f 147/250/6 24/56/6 39/74/6 150/254/6
f 131/222/6 23/55/6 38/72/6 134/226/6
f 23/55/6 22/54/6 37/70/6 38/72/6
f 22/54/6 21/53/6 36/68/6 37/70/6
f 76/137/5 118/209/5 36/69/5 4/9/5
f 118/209/5 121/212/5 37/71/5 36/69/5
f 121/212/5 124/215/5 38/73/5 37/71/5
f 143/243/5 127/218/5 39/75/5 134/225/5
f 159/271/5 130/221/5 40/76/5 150/253/5
f 2/4/4 26/58/4 31/63/4 3/7/4
f 26/58/4 27/59/4 32/64/4 31/63/4
f 27/59/4 28/60/4 33/65/4 32/64/4
f 132/223/4 29/61/4 34/66/4 133/224/4
f 148/251/4 30/62/4 35/67/4 149/252/4
f 149/252/5 35/67/5 128/219/5 157/269/5
f 157/269/5 128/219/5 129/220/5 158/270/5
f 186/322/5 182/314/5 130/221/5 159/271/5
f 133/224/5 34/66/5 125/216/5 141/241/5
f 141/241/5 125/216/5 126/217/5 142/242/5
f 184/318/5 181/313/5 127/218/5 143/243/5
f 32/64/5 33/65/5 122/213/5 119/210/5
f 119/210/5 122/213/5 123/214/5 120/211/5
f 179/311/5 180/312/5 124/215/5 121/212/5
f 31/63/5 32/64/5 119/210/5 116/207/5
f 116/207/5 119/210/5 120/211/5 117/208/5
f 178/310/5 179/311/5 121/212/5 118/209/5
f 3/7/5 31/63/5 116/207/5 74/133/5
f 74/133/5 116/207/5 117/208/5 75/136/5
f 164/281/5 178/310/5 118/209/5 76/137/5
f 155/264/14 65/116/14 113/204/14 160/272/14
f 185/319/14 177/307/14 114/205/14 161/274/14
f 161/274/14 114/205/14 115/206/14 162/276/14
f 139/236/16 64/114/16 110/198/16 144/245/16
f 183/316/16 176/306/16 111/199/16 145/246/16
f 145/246/16 111/199/16 112/201/16 146/248/16
f 62/112/14 63/113/14 107/194/14 104/191/14
f 174/301/14 175/303/14 108/195/14 105/192/14
f 105/192/14 108/195/14 109/196/14 106/193/14
f 61/111/14 62/112/14 104/191/14 101/188/14
f 173/298/14 174/301/14 105/192/14 102/189/14
f 102/189/14 105/192/14 106/193/14 103/190/14
f 17/44/14 61/111/14 101/188/14 95/176/14
f 171/295/14 173/298/14 102/189/14 96/177/14
f 96/177/14 102/189/14 103/190/14 97/179/14
f 15/38/2 92/170/2 98/182/2 19/48/2
f 170/293/2 93/171/2 99/183/2 172/297/2
f 93/171/2 94/173/2 100/185/2 99/183/2
f 14/35/1 91/167/1 97/180/1 18/47/1
f 91/167/1 90/166/1 96/178/1 97/180/1
f 169/291/1 89/163/1 95/175/1 171/294/1
f 65/116/14 19/49/14 98/181/14 113/204/14
f 177/307/14 172/296/14 99/184/14 114/205/14
f 114/205/14 99/184/14 100/186/14 115/206/14
f 10/24/13 85/155/13 91/168/13 14/36/13
f 85/155/13 84/154/13 90/165/13 91/168/13
f 167/287/13 83/151/13 89/164/13 169/290/13
f 2/5/10 73/131/10 85/156/10 10/25/10
f 73/131/10 72/130/10 84/153/10 85/156/10
f 163/279/10 71/127/10 83/152/10 167/286/10
f 11/26/7 86/158/7 92/169/7 15/39/7
f 168/289/7 87/159/7 93/172/7 170/292/7
f 87/159/7 88/161/7 94/174/7 93/172/7
f 35/67/5 7/17/5 80/145/5 128/219/5
f 128/219/5 80/145/5 81/148/5 129/220/5
f 182/314/5 166/285/5 82/149/5 130/221/5
f 5/11/3 77/140/3 86/157/3 11/27/3
f 165/283/3 78/141/3 87/160/3 168/288/3
f 78/141/3 79/143/3 88/162/3 87/160/3
f 5/12/2 8/20/2 82/150/2 77/139/2
f 165/282/2 166/284/2 81/147/2 78/142/2
f 78/142/2 81/147/2 80/146/2 79/144/2
f 1/2/1 71/128/1 76/138/1 4/10/1
f 163/278/1 72/129/1 75/135/1 164/280/1
f 72/129/1 73/132/1 74/134/1 75/135/1
f 108/195/14 145/247/14 146/249/14 109/196/14
f 175/303/14 183/315/14 145/247/14 108/195/14
f 63/113/14 139/237/14 144/244/14 107/194/14
f 180/312/5 184/318/5 143/243/5 124/215/5
f 122/213/5 141/241/5 142/242/5 123/214/5
f 33/65/5 133/224/5 141/241/5 122/213/5
f 28/60/4 132/223/4 133/224/4 33/65/4
f 124/215/5 143/243/5 134/225/5 38/73/5
f 24/56/6 131/222/6 134/226/6 39/74/6
f 29/61/8 132/223/8 136/230/8 49/91/8
f 23/55/9 131/222/9 135/228/9 43/82/9
f 53/97/6 137/232/6 139/237/6 63/113/6
f 43/83/11 135/229/11 137/233/11 53/98/11
f 49/91/20 136/230/20 138/234/20 59/108/20
f 109/196/14 146/249/14 140/239/14 68/122/14
f 59/109/21 138/235/21 140/240/21 69/123/21
f 111/200/22 161/275/22 162/277/22 112/202/22
f 176/305/22 185/321/22 161/275/22 111/200/22
f 64/115/22 155/265/22 160/273/22 110/197/22
f 181/313/5 186/322/5 159/271/5 127/218/5
f 125/216/5 157/269/5 158/270/5 126/217/5
f 34/66/5 149/252/5 157/269/5 125/216/5
f 29/61/4 148/251/4 149/252/4 34/66/4
f 127/218/5 159/271/5 150/253/5 39/75/5
f 25/57/6 147/250/6 150/254/6 40/77/6
f 30/62/8 148/251/8 152/257/8 50/92/8
f 24/56/9 147/250/9 151/256/9 44/85/9
f 54/100/23 153/260/23 155/265/23 64/115/23
f 44/85/24 151/256/24 153/261/24 54/101/24
f 50/92/12 152/257/12 154/263/12 60/110/12
f 112/202/22 162/277/22 156/267/22 69/124/22
f 60/110/4 154/263/4 156/268/4 70/126/4
f 126/217/5 158/270/5 186/322/5 181/313/5
f 110/197/22 160/273/22 185/321/22 176/305/22
f 123/214/5 142/242/5 184/318/5 180/312/5
f 144/245/2 183/316/2 197/343/2 187/323/2
f 71/128/1 163/278/1 164/280/1 76/138/1
f 77/139/2 82/150/2 166/284/2 165/282/2
f 77/140/3 165/283/3 168/288/3 86/157/3
f 129/220/5 81/148/5 166/285/5 182/314/5
f 86/158/7 168/289/7 170/292/7 92/169/7
f 72/130/10 163/279/10 167/286/10 84/153/10
f 84/154/13 167/287/13 169/290/13 90/165/13
f 113/204/14 98/181/14 172/296/14 177/307/14
f 90/166/1 169/291/1 171/294/1 96/178/1
f 92/170/2 170/293/2 172/297/2 98/182/2
f 95/176/14 101/188/14 173/298/14 171/295/14
f 107/194/6 144/244/6 187/324/6 188/325/6
f 175/304/4 174/302/4 194/337/4 195/339/4
f 144/245/16 110/198/16 176/306/16 183/316/16
f 104/191/6 107/194/6 188/325/6 189/326/6
f 75/136/5 117/208/5 178/310/5 164/281/5
f 117/208/5 120/211/5 179/311/5 178/310/5
f 120/211/5 123/214/5 180/312/5 179/311/5
f 142/242/5 126/217/5 181/313/5 184/318/5
f 158/270/5 129/220/5 182/314/5 186/322/5
f 188/325/14 187/324/14 197/344/14 195/338/14
f 190/328/14 189/326/14 194/336/14 193/333/14
f 189/326/14 188/325/14 195/338/14 194/336/14
f 192/331/14 191/330/14 196/340/14 198/346/14
f 173/299/1 101/187/1 190/327/1 193/334/1
f 183/317/4 175/304/4 195/339/4 197/345/4
f 113/203/2 177/308/2 196/341/2 191/329/2
f 177/309/4 185/320/4 198/347/4 196/342/4
f 160/272/6 113/204/6 191/330/6 192/331/6
f 174/302/4 173/300/4 193/335/4 194/337/4
f 185/321/1 160/273/1 192/332/1 198/348/1
f 101/188/6 104/191/6 189/326/6 190/328/6
